<svg width="25" height="22" viewBox="0 0 25 22" fill="none" xmlns="http://www.w3.org/2000/svg">
<path d="M22.1395 9.16668H21.4527V5.50001C21.4527 5.33794 21.3804 5.1825 21.2516 5.06789C21.1228 4.95329 20.9481 4.8889 20.766 4.8889H4.2844C4.12179 4.89126 3.96351 4.84219 3.83775 4.75043C3.71199 4.65866 3.62692 4.53015 3.59766 4.38779V4.16779C3.62692 4.02543 3.71199 3.89692 3.83775 3.80516C3.96351 3.71339 4.12179 3.66432 4.2844 3.66668H20.4776C20.6597 3.66668 20.8344 3.6023 20.9632 3.48769C21.092 3.37308 21.1643 3.21765 21.1643 3.05557C21.1643 2.89349 21.092 2.73805 20.9632 2.62345C20.8344 2.50884 20.6597 2.44446 20.4776 2.44446H4.2844C3.738 2.44446 3.21398 2.63761 2.82762 2.98143C2.44125 3.32525 2.2242 3.79156 2.2242 4.27779C2.21938 4.35106 2.21938 4.42452 2.2242 4.49779V17.0683C2.22689 17.3974 2.30239 17.7227 2.44639 18.0258C2.59038 18.3289 2.80005 18.6037 3.06341 18.8347C3.32678 19.0657 3.63869 19.2482 3.98134 19.3719C4.32398 19.4956 4.69065 19.558 5.06041 19.5556H20.766C20.9481 19.5556 21.1228 19.4912 21.2516 19.3766C21.3804 19.262 21.4527 19.1065 21.4527 18.9445V15.2778H22.1395C22.3216 15.2778 22.4963 15.2134 22.6251 15.0988C22.7539 14.9842 22.8262 14.8288 22.8262 14.6667V9.77779C22.8262 9.61571 22.7539 9.46028 22.6251 9.34567C22.4963 9.23106 22.3216 9.16668 22.1395 9.16668ZM20.0793 18.3333H5.06041C4.67845 18.3366 4.31048 18.2056 4.03655 17.9687C3.76262 17.7318 3.60489 17.4082 3.59766 17.0683V6.03779C3.82058 6.09528 4.05253 6.12005 4.2844 6.11112H20.0793V9.16668H15.2721C14.3615 9.16668 13.4881 9.4886 12.8442 10.0616C12.2002 10.6347 11.8385 11.4119 11.8385 12.2222C11.8385 13.0326 12.2002 13.8098 12.8442 14.3828C13.4881 14.9559 14.3615 15.2778 15.2721 15.2778H20.0793V18.3333ZM21.4527 14.0556H15.2721C14.7257 14.0556 14.2017 13.8624 13.8154 13.5186C13.429 13.1748 13.2119 12.7085 13.2119 12.2222C13.2119 11.736 13.429 11.2697 13.8154 10.9259C14.2017 10.5821 14.7257 10.3889 15.2721 10.3889H21.4527V14.0556Z" fill="white"/>
<path d="M15.9656 13.1389C16.5346 13.1389 16.9957 12.7285 16.9957 12.2222C16.9957 11.7159 16.5346 11.3055 15.9656 11.3055C15.3967 11.3055 14.9355 11.7159 14.9355 12.2222C14.9355 12.7285 15.3967 13.1389 15.9656 13.1389Z" fill="white"/>
</svg>
